<?xml version="1.0" encoding="utf-8"?>
<!-- Generator: Adobe Illustrator 22.0.1, SVG Export Plug-In . SVG Version: 6.00 Build 0)  -->
<svg version="1.1" xmlns="http://www.w3.org/2000/svg" xmlns:xlink="http://www.w3.org/1999/xlink" x="0px" y="0px"
	 viewBox="0 0 283 283" style="enable-background:new 0 0 283 283;" xml:space="preserve">
<style type="text/css">
	.st0{fill:none;stroke:#38414E;stroke-width:3;stroke-miterlimit:10;}
	.st1{fill:none;stroke:#38414E;stroke-width:6;stroke-miterlimit:10;}
</style>
<g id="Layer_2">
	<g>
		<g>
			<path class="st0" d="M173.1,168.6h-28.7h-2.9h-28.7c0,0-2.8,27.8,29.8,28.2l0,0c0.1,0,0.2,0,0.3,0c0.1,0,0.2,0,0.3,0l0,0
				C175.9,196.4,173.1,168.6,173.1,168.6z"/>
			<path class="st0" d="M144.7,135.4c0,0-14.4,14.5,0,14.5"/>
			
				<rect x="80.4" y="88.1" transform="matrix(0.9974 -7.236785e-02 7.236785e-02 0.9974 -7.1624 7.9763)" class="st1" width="52.1" height="29.5"/>
			
				<rect x="150.4" y="88.1" transform="matrix(0.9974 7.239246e-02 -7.239246e-02 0.9974 7.9072 -12.5069)" class="st1" width="52.1" height="29.5"/>
			<line class="st1" x1="131.1" y1="91.2" x2="150.5" y2="91.2"/>
		</g>
		<path class="st0" d="M212.2,90.9c0,69.9-31.7,126.6-70.7,126.6S70.8,160.8,70.8,90.9"/>
	</g>
</g>
<g id="Layer_3">
</g>
</svg>
